<svg width="512" height="512" viewBox="0 0 441 512" fill="none" xmlns="http://www.w3.org/2000/svg">
<path opacity="0.4" d="M208.121 490.583C246.053 490.583 276.803 484.748 276.803 477.549C276.803 470.35 246.053 464.514 208.121 464.514C170.189 464.514 139.438 470.35 139.438 477.549C139.438 484.748 170.189 490.583 208.121 490.583Z" fill="#E6E6E6"/>
<path opacity="0.4" d="M367.544 490.583C405.477 490.583 436.227 484.748 436.227 477.549C436.227 470.35 405.477 464.514 367.544 464.514C329.612 464.514 298.862 470.35 298.862 477.549C298.862 484.748 329.612 490.583 367.544 490.583Z" fill="#E6E6E6"/>
<path d="M65.6925 87.7951C69.4967 62.6628 86.0626 40.812 114.304 42.8423C120.233 43.3318 126.081 44.5394 131.719 46.4386L134.43 40.4159C155.612 -0.925934 214.724 -13.3894 251.145 16.3712C257.621 21.7976 262.864 28.5431 266.526 36.1573C274.169 51.6255 275.09 68.3367 271.556 84.4891L279.062 87.5585C279.062 87.5585 317.361 102.677 314.338 140.976C311.314 179.276 280.07 188.851 256.888 188.851H211.554L125.33 189.548H119.707C96.8322 189.905 73.945 190.023 51.295 188.689C41.8621 188.134 32.2199 186.914 23.8464 182.536C13.9132 177.342 6.4997 167.893 2.86793 157.289C-0.763838 146.684 -0.771437 135.022 1.86152 124.126C4.09846 114.869 8.28287 105.965 14.7536 98.9774C27.2143 85.5218 42.8277 85.203 59.8464 87.0546L65.6925 87.7951Z" fill="#E6E6E6"/>
<path d="M370.66 49.5412C369.73 43.3962 365.679 38.0535 358.774 38.5499C357.324 38.6696 355.894 38.9649 354.516 39.4293L353.853 37.9567C348.674 27.8483 334.22 24.8009 325.315 32.0776C323.732 33.4044 322.45 35.0537 321.555 36.9154C319.796 40.5955 319.362 44.7696 320.325 48.7328L318.49 49.4833C318.49 49.4833 309.125 53.1799 309.864 62.5444C310.604 71.9089 318.243 74.25 323.911 74.25H334.996L356.078 74.4204H357.453C363.046 74.5077 368.642 74.5365 374.18 74.2104C376.498 74.1872 378.785 73.6745 380.891 72.7059C383.321 71.3712 385.153 69.1653 386.021 66.5329C386.867 63.9076 386.953 61.0961 386.267 58.4243C385.756 56.1401 384.671 54.0238 383.115 52.2753C380.068 48.9853 376.25 48.9074 372.089 49.3601L370.66 49.5412Z" fill="#9BC2D9"/>
<path d="M58.5404 122.284C67.1945 125.778 89.5701 133.503 84.922 144.054C80.2739 154.605 49.6416 173.878 45.2211 160.723C40.8006 147.568 45.3584 133.728 46.6003 127.001C41.7187 124.633 37.0223 121.901 32.5513 118.828C41.1737 117.165 51.0696 113.931 57.6464 109.691C57.8977 113.231 57.52 117.547 55.4429 121.107L58.5404 122.284Z" fill="#B9D9EB"/>
<path d="M62.6507 131.556C55.7717 135.012 49.9992 138.987 52.538 142.064C55.0768 145.141 70.1024 139.698 70.2328 144.75C70.3632 149.802 62.1708 150.013 60.1333 150.476" stroke="#3E5B58" stroke-width="1.06197" stroke-linecap="round" stroke-linejoin="round"/>
<path d="M53.8564 129.597C55.3417 134.204 63.4005 149.982 64.8998 155.135" stroke="#3E5B58" stroke-width="1.06197" stroke-linecap="round" stroke-linejoin="round"/>
<path d="M60.5723 135.708C62.0188 138.813 67.0832 149.75 68.572 154.493" stroke="#3E5B58" stroke-width="1.06197" stroke-linecap="round" stroke-linejoin="round"/>
<path d="M210.797 143.915L164.938 115.335L145.885 145.908L191.744 174.488L210.797 143.915Z" fill="#B9D9EB"/>
<path d="M167.816 144.002C165.58 140.102 162.224 135.504 163.171 135.41C167.951 134.515 178.004 133.717 178.004 133.717" stroke="#3E5B58" stroke-width="2.48866" stroke-linecap="round" stroke-linejoin="round"/>
<path d="M186.198 137.684C185.264 138.469 169.763 151.261 169.763 151.261" stroke="#3E5B58" stroke-width="2.48866" stroke-linecap="round" stroke-linejoin="round"/>
<path d="M191.916 141.704C193.001 146.025 194.227 152.259 194.227 152.259L183.956 152.694" stroke="#3E5B58" stroke-width="2.48866" stroke-linecap="round" stroke-linejoin="round"/>
<path d="M131.365 92.2798L123.644 125.691L123.933 125.758C143.823 124.555 153.742 110.74 158.641 98.5831L131.365 92.2798Z" fill="#FFBE9F"/>
<path d="M123.644 125.692L131.366 92.28L104.379 86.0435C103.448 99.1171 106.3 115.883 123.644 125.692Z" fill="#FFBE9F"/>
<path d="M108.401 67.2052C106.195 73.2684 104.842 79.6081 104.378 86.0432L131.365 92.2797L139.688 56.2661C139.688 56.2661 118.851 69.6203 108.401 67.2052Z" fill="#FFBE9F"/>
<path d="M163.291 79.8903C152.841 77.4751 139.977 56.3329 139.977 56.3329L139.687 56.2661L131.365 92.2797L158.641 98.5831C161.048 92.5971 162.613 86.3063 163.291 79.8903V79.8903Z" fill="#FFBE9F"/>
<path d="M140.04 84.6514C140.574 82.343 141.784 79.7974 140.063 77.4835C138.924 76.0773 137.345 75.0949 135.581 74.6941C133.762 74.1667 131.809 74.3706 130.138 75.2625C128.006 76.5973 127.764 79.02 127.283 81.1057C126.958 82.5116 126.633 83.9174 126.308 85.3233L123.425 84.6571C123.787 83.0915 124.149 81.5259 124.511 79.9602C125.135 77.2572 125.403 74.107 128.425 72.437C130.505 71.2877 133.513 71.1985 136.232 71.8745C138.748 72.434 141.03 73.755 142.769 75.6576C145.318 78.7302 143.662 82.0089 142.971 85.0006L142.055 88.9624L139.197 88.3018L140.04 84.6514Z" fill="#CC896C"/>
<path d="M144.113 89.1478L143.115 88.9172L140 88.1973L126.07 84.9782L122.981 84.2643L121.573 83.939C121.009 83.7776 120.403 83.8452 119.888 84.1271C119.373 84.409 118.99 84.8826 118.821 85.4451L114.18 105.53C114.084 106.109 114.221 106.703 114.56 107.182C114.899 107.662 115.414 107.988 115.992 108.091L138.531 113.3C139.096 113.461 139.701 113.393 140.217 113.112C140.732 112.83 141.115 112.356 141.283 111.794L145.925 91.7087C146.02 91.1293 145.884 90.5356 145.545 90.0562C145.205 89.5769 144.691 89.2505 144.113 89.1478V89.1478Z" fill="#F0A17F"/>
<path d="M127.05 95.0991C127.196 94.4629 127.507 93.8765 127.952 93.3988C128.397 92.9211 128.96 92.569 129.584 92.3778C130.209 92.1866 130.872 92.1632 131.508 92.3099C132.144 92.4565 132.731 92.768 133.208 93.2132C133.686 93.6583 134.038 94.2213 134.229 94.8456C134.42 95.4698 134.443 96.1334 134.296 96.7695C134.149 97.4056 133.837 97.9918 133.392 98.4692C132.947 98.9466 132.384 99.2984 131.759 99.4891L130.995 102.795C130.934 103.06 130.822 103.309 130.664 103.53C130.507 103.751 130.307 103.939 130.077 104.082C129.847 104.226 129.591 104.323 129.323 104.368C129.056 104.413 128.782 104.404 128.518 104.343C128.253 104.282 128.004 104.169 127.783 104.012C127.562 103.854 127.374 103.655 127.231 103.425C127.087 103.195 126.99 102.938 126.945 102.671C126.901 102.403 126.909 102.13 126.97 101.865L127.797 98.2879C127.436 97.8491 127.182 97.3334 127.052 96.7805C126.922 96.2276 126.922 95.6524 127.05 95.0991V95.0991Z" fill="#3E5B58"/>
<path d="M250.097 54.4263H242.595C242.086 51.1461 240.78 48.0407 238.792 45.3824L243.417 40.655C243.417 40.655 247.22 38.2912 243.314 34.3859L240.848 32.1249C240.848 32.1249 239.563 29.9154 236.018 33.461L231.804 38.4968C229.433 36.3927 226.435 35.1286 223.274 34.8999L222.76 29.3502C222.76 23.8005 220.294 23.6978 220.294 23.6978H215.36C212.278 23.6978 212.791 29.7098 212.791 29.7098V34.7971C209.251 34.8693 205.856 36.2198 203.234 38.5995L197.684 33.6665C197.684 33.6665 195.526 30.8917 192.648 33.7693L190.49 36.133C190.49 36.133 188.897 37.6232 192.031 40.7578L196.965 45.3824C196.965 45.3824 193.881 47.4378 192.854 54.2209H185.865C185.865 54.2209 181.754 54.1181 181.754 57.6122V60.7981C181.754 60.7981 180.829 64.2924 185.249 64.2924H192.34C192.34 64.2924 192.956 70.2531 196.451 73.4391C196.451 73.4391 188.846 80.5301 191.312 83.2023L193.676 85.566C193.676 85.566 196.37 88.3407 199.545 84.6411L203.542 80.6329C203.542 80.6329 206.42 84.2299 212.586 84.4354V90.9102C212.586 90.9102 211.661 95.2139 215.566 95.2139H219.471C219.471 95.2139 222.657 95.7403 222.657 91.2185V84.0244C222.657 84.0244 228.721 83.8189 231.804 80.7358L233.511 82.4397C233.511 82.4397 239.204 88.1352 241.464 85.8743L244.753 82.8939C244.753 82.8939 246.706 81.558 243.006 77.8582L238.587 73.5418C238.587 73.5418 242.903 68.917 242.287 64.7034H250.097C250.995 64.6234 251.829 64.2093 252.436 63.5432C253.043 62.877 253.377 62.0074 253.373 61.1063V57.9205C253.373 57.9205 254.311 54.4263 250.097 54.4263ZM229.351 68.4823C227.026 71.4733 223.608 73.4187 219.849 73.8911C216.09 74.3634 212.298 73.324 209.305 71.0014C206.312 68.6787 204.364 65.2628 203.889 61.5044C203.413 57.746 204.449 53.9526 206.77 50.9579C211.609 44.7223 221.011 44.6596 227.246 49.4989L229.395 51.505C233.759 56.5504 233.597 63.0103 229.351 68.4823Z" fill="#B9D9EB"/>
<path d="M292.01 119.916L274.436 123.371L262.845 109.716L280.373 106.397L292.01 119.916Z" fill="#CC896C"/>
<path d="M262.844 109.716L256.954 126.554L268.593 140.073L274.435 123.371L262.844 109.716Z" fill="#FBBDA0"/>
<path d="M292.009 119.916L274.436 123.371L268.594 140.074L286.121 136.754L292.009 119.916Z" fill="#F0A17F"/>
<path d="M303.648 133.435L286.074 136.89L274.436 123.371L292.011 119.916L303.648 133.435Z" fill="#DB9374"/>
<path d="M274.436 123.371L268.594 140.072L280.232 153.592L286.074 136.89L274.436 123.371Z" fill="#FFBE9F"/>
<path d="M303.647 133.435L286.073 136.89L280.231 153.593L297.758 150.273L303.647 133.435Z" fill="#F0A17F"/>
<path d="M245.337 113.042L256.927 126.697L274.454 123.378L262.863 109.722L245.337 113.042Z" fill="#DB9374"/>
<path d="M274.453 123.378L268.612 140.079L251.084 143.398L256.925 126.697L274.453 123.378Z" fill="#F0A17F"/>
<path d="M245.336 113.042L256.926 126.697L251.085 143.398L239.447 129.879L245.336 113.042Z" fill="#FFBE9F"/>
<path d="M175.682 440.259C182.61 446.512 200.972 461.452 192.983 469.765C184.994 478.078 149.605 485.659 149.972 471.786C150.338 457.913 159.372 446.48 162.849 440.588C159.077 436.688 155.604 432.509 152.461 428.087C161.13 429.487 171.535 429.848 179.168 428.125C178.188 431.536 176.351 435.46 173.177 438.09L175.682 440.259Z" fill="#B9D9EB"/>
<path d="M176.358 450.379C168.71 451.263 161.924 453.014 163.252 456.776C164.579 460.537 180.56 460.585 178.948 465.375C177.335 470.164 169.568 467.55 167.496 467.284" stroke="#3E5B58" stroke-width="1.06197" stroke-linecap="round" stroke-linejoin="round"/>
<path d="M168.772 445.519C168.585 450.356 170.735 467.941 170.373 473.296" stroke="#3E5B58" stroke-width="1.06197" stroke-linecap="round" stroke-linejoin="round"/>
<path d="M172.98 453.565C173.273 456.978 174.273 468.989 174.042 473.955" stroke="#3E5B58" stroke-width="1.06197" stroke-linecap="round" stroke-linejoin="round"/>
<path d="M210.797 418.501L164.938 389.921L145.885 420.494L191.744 449.074L210.797 418.501Z" fill="#91AAB8"/>
<path d="M167.816 418.588C165.58 414.688 162.224 410.09 163.171 409.996C167.951 409.101 178.004 408.303 178.004 408.303" stroke="#3E5B58" stroke-width="2.48866" stroke-linecap="round" stroke-linejoin="round"/>
<path d="M186.198 412.27C185.264 413.055 169.763 425.847 169.763 425.847" stroke="#3E5B58" stroke-width="2.48866" stroke-linecap="round" stroke-linejoin="round"/>
<path d="M191.916 416.29C193.001 420.611 194.227 426.845 194.227 426.845L183.956 427.28" stroke="#3E5B58" stroke-width="2.48866" stroke-linecap="round" stroke-linejoin="round"/>
<path d="M244.666 443.068L236.945 476.48L237.234 476.546C257.123 475.343 267.042 461.528 271.942 449.371L244.666 443.068Z" fill="#FFBE9F"/>
<path d="M236.945 476.479L244.667 443.068L217.68 436.831C216.749 449.905 219.601 466.671 236.945 476.479Z" fill="#FFBE9F"/>
<path d="M221.702 417.993C219.497 424.056 218.143 430.396 217.68 436.831L244.666 443.068L252.989 407.054C252.989 407.054 232.153 420.408 221.702 417.993Z" fill="#FFBE9F"/>
<path d="M276.593 430.678C266.142 428.263 253.278 407.121 253.278 407.121L252.989 407.054L244.666 443.068L271.942 449.371C274.349 443.385 275.914 437.094 276.593 430.678V430.678Z" fill="#FFBE9F"/>
<path d="M253.341 435.44C253.875 433.132 255.084 430.586 253.364 428.272C252.225 426.866 250.646 425.883 248.881 425.483C247.063 424.955 245.11 425.159 243.439 426.051C241.307 427.386 241.065 429.809 240.583 431.894C240.258 433.3 239.934 434.706 239.609 436.112L236.726 435.446C237.088 433.88 237.45 432.314 237.812 430.749C238.436 428.046 238.704 424.896 241.726 423.226C243.806 422.076 246.813 421.987 249.533 422.663C252.048 423.223 254.331 424.544 256.069 426.446C258.619 429.519 256.963 432.797 256.272 435.789L255.356 439.751L252.498 439.09L253.341 435.44Z" fill="#CC896C"/>
<path d="M257.414 439.936L256.416 439.706L253.3 438.986L239.371 435.767L236.282 435.053L234.874 434.728C234.309 434.566 233.704 434.634 233.189 434.916C232.674 435.198 232.29 435.671 232.122 436.234L227.48 456.318C227.385 456.898 227.522 457.492 227.861 457.971C228.2 458.45 228.714 458.777 229.293 458.879L251.832 464.088C252.397 464.25 253.002 464.182 253.517 463.9C254.032 463.618 254.416 463.145 254.584 462.582L259.226 442.497C259.321 441.918 259.185 441.324 258.845 440.845C258.506 440.365 257.992 440.039 257.414 439.936V439.936Z" fill="#F0A17F"/>
<path d="M240.35 445.887C240.497 445.251 240.808 444.665 241.253 444.187C241.698 443.709 242.261 443.357 242.885 443.166C243.509 442.975 244.173 442.951 244.809 443.098C245.445 443.245 246.032 443.556 246.509 444.001C246.987 444.446 247.339 445.009 247.53 445.634C247.72 446.258 247.744 446.921 247.597 447.558C247.45 448.194 247.138 448.78 246.693 449.257C246.248 449.735 245.685 450.086 245.06 450.277L244.296 453.584C244.235 453.848 244.123 454.098 243.965 454.318C243.807 454.539 243.608 454.727 243.378 454.87C242.913 455.161 242.352 455.254 241.818 455.131C241.285 455.008 240.822 454.677 240.531 454.213C240.241 453.748 240.147 453.187 240.271 452.653L241.098 449.076C240.737 448.637 240.482 448.121 240.353 447.569C240.223 447.016 240.222 446.44 240.35 445.887V445.887Z" fill="#3E5B58"/>
<path d="M260.124 416.244H252.622C252.113 412.964 250.807 409.859 248.819 407.2L253.444 402.473C253.444 402.473 257.247 400.109 253.341 396.204L250.875 393.943C250.875 393.943 249.59 391.733 246.044 395.279L241.831 400.315C239.46 398.211 236.462 396.946 233.301 396.718L232.787 391.168C232.787 385.618 230.32 385.516 230.32 385.516H225.387C222.304 385.516 222.818 391.528 222.818 391.528V396.615C219.278 396.687 215.883 398.038 213.26 400.417L207.711 395.484C207.711 395.484 205.553 392.71 202.675 395.587L200.517 397.951C200.517 397.951 198.924 399.441 202.058 402.576L206.991 407.2C206.991 407.2 203.908 409.256 202.881 416.039H195.892C195.892 416.039 191.781 415.936 191.781 419.43V422.616C191.781 422.616 190.856 426.11 195.276 426.11H202.367C202.367 426.11 202.983 432.071 206.477 435.257C206.477 435.257 198.873 442.348 201.339 445.02L203.703 447.384C203.703 447.384 206.397 450.159 209.572 446.459L213.569 442.451C213.569 442.451 216.446 446.048 222.613 446.253V452.728C222.613 452.728 221.688 457.032 225.593 457.032H229.498C229.498 457.032 232.684 457.558 232.684 453.036V445.842C232.684 445.842 238.748 445.637 241.831 442.554L243.537 444.258C243.537 444.258 249.23 449.953 251.491 447.692L254.78 444.712C254.78 444.712 256.733 443.376 253.033 439.676L248.614 435.36C248.614 435.36 252.93 430.735 252.313 426.521H260.124C261.022 426.441 261.856 426.027 262.463 425.361C263.07 424.695 263.404 423.825 263.4 422.924V419.738C263.4 419.738 264.338 416.244 260.124 416.244ZM239.378 430.3C237.052 433.291 233.635 435.237 229.876 435.709C226.117 436.181 222.325 435.142 219.332 432.819C216.339 430.497 214.391 427.081 213.915 423.322C213.44 419.564 214.476 415.77 216.797 412.776C221.636 406.54 231.038 406.477 237.273 411.317L239.422 413.323C243.785 418.368 243.624 424.828 239.378 430.3Z" fill="#A5C1D1"/>
<path d="M221.823 438.619L204.249 442.075L192.658 428.418L210.186 425.1L221.823 438.619Z" fill="#CC896C"/>
<path d="M192.659 428.419L186.769 445.258L198.408 458.777L204.25 442.075L192.659 428.419Z" fill="#FBBDA0"/>
<path d="M221.822 438.619L204.249 442.075L198.407 458.776L215.934 455.457L221.822 438.619Z" fill="#F0A17F"/>
<path d="M233.461 452.138L215.887 455.594L204.249 442.075L221.824 438.619L233.461 452.138Z" fill="#DB9374"/>
<path d="M204.249 442.075L198.407 458.776L210.045 472.295L215.887 455.594L204.249 442.075Z" fill="#FFBE9F"/>
<path d="M233.46 452.138L215.886 455.594L210.044 472.295L227.571 468.976L233.46 452.138Z" fill="#F0A17F"/>
<path d="M175.15 431.745L186.74 445.4L204.268 442.081L192.677 428.426L175.15 431.745Z" fill="#DB9374"/>
<path d="M204.267 442.082L198.426 458.783L180.899 462.102L186.739 445.4L204.267 442.082Z" fill="#F0A17F"/>
<path d="M175.15 431.745L186.74 445.4L180.9 462.101L169.262 448.582L175.15 431.745Z" fill="#FFBE9F"/>
<path d="M171.59 394.402C171.524 391.212 173.108 388.156 176.645 387.805C177.389 387.739 178.138 387.764 178.876 387.878L179.083 387.076C179.554 385.737 180.308 384.515 181.294 383.494C182.28 382.473 183.474 381.676 184.795 381.158C186.116 380.64 187.534 380.412 188.951 380.491C190.368 380.569 191.752 380.952 193.008 381.613C193.924 382.147 194.717 382.869 195.332 383.733C196.542 385.442 197.126 387.515 196.984 389.604L197.978 389.824C197.978 389.824 203.038 390.878 203.481 395.68C203.923 400.482 200.262 402.333 197.395 402.827L191.787 403.793L181.136 405.717L180.44 405.837C177.618 406.369 174.79 406.871 171.959 407.189C170.785 407.38 169.583 407.32 168.433 407.013C167.088 406.55 165.968 405.594 165.3 404.337C164.642 403.083 164.354 401.668 164.468 400.257C164.528 399.056 164.892 397.891 165.527 396.871C166.781 394.941 168.706 394.569 170.851 394.435L171.59 394.402Z" fill="#FFBE9F"/>
<path d="M288.154 159.804V269.745C288.154 282.3 299.015 281.07 299.015 281.07H329.467" stroke="#3E5B58" stroke-width="3" stroke-linecap="round" stroke-linejoin="round"/>
<path d="M297.787 149.341C297.787 149.341 297.571 159.803 288.155 159.803C279.785 159.803 279.785 149.341 279.785 149.341" stroke="#3E5B58" stroke-width="3" stroke-linecap="round" stroke-linejoin="round"/>
<path d="M430.175 330.8V291.045C430.175 278.489 419.315 279.72 419.315 279.72H388.862" stroke="#3E5B58" stroke-width="3" stroke-linecap="round" stroke-linejoin="round"/>
<path d="M420.543 341.263C420.543 341.263 420.759 330.8 430.175 330.8C438.546 330.8 438.546 341.263 438.546 341.263" stroke="#3E5B58" stroke-width="3" stroke-linecap="round" stroke-linejoin="round"/>
<path d="M327.765 476.547V469.223C327.765 469.223 328.028 458.76 339.521 458.76C349.736 458.76 349.736 469.223 349.736 469.223V476.547H327.765Z" fill="#FFBE9F"/>
<path d="M338.75 323.168V459.28" stroke="#3E5B58" stroke-width="3" stroke-linecap="round" stroke-linejoin="round"/>
<path d="M385.48 476.547V469.223C385.48 469.223 385.744 458.76 397.236 458.76C407.452 458.76 407.452 469.223 407.452 469.223V476.547H385.48Z" fill="#FFBE9F"/>
<path d="M396.466 323.168V459.28" stroke="#3E5B58" stroke-width="3" stroke-linecap="round" stroke-linejoin="round"/>
<path d="M340.761 320.348L367.307 308.308L393.38 321.147" stroke="#3E5B58" stroke-width="3" stroke-linecap="round" stroke-linejoin="round"/>
<path d="M312.798 181.087C311.71 181.594 310.474 181.686 309.324 181.344C308.173 181.003 307.187 180.251 306.553 179.232C305.919 178.213 305.679 176.997 305.881 175.814C306.082 174.631 306.709 173.562 307.645 172.81C308.58 172.058 309.759 171.675 310.958 171.733C312.157 171.791 313.293 172.286 314.152 173.124C315.011 173.963 315.532 175.087 315.619 176.284C315.705 177.481 315.35 178.669 314.62 179.622C314.14 180.25 313.515 180.753 312.798 181.087V181.087Z" fill="#B9D9EB"/>
<path d="M316.869 182.146L316.93 182.211L316.926 182.215C316.904 182.194 316.879 182.176 316.852 182.163C316.856 182.163 316.865 182.159 316.869 182.146Z" fill="#5CFFE6"/>
<path d="M348.35 289.102C349.854 289.102 351.074 287.882 351.074 286.377C351.074 284.873 349.854 283.653 348.35 283.653C346.845 283.653 345.625 284.873 345.625 286.377C345.625 287.882 346.845 289.102 348.35 289.102Z" fill="#3E5B58"/>
<path d="M378.2 304.367C374.569 304.31 370.938 304.258 367.307 304.21C363.676 304.254 360.045 304.306 356.414 304.367C355.32 304.384 354.23 304.402 353.135 304.419C353.091 307.902 354.285 311.286 356.505 313.97C356.749 314.266 357.006 314.549 357.277 314.824C359.925 317.493 363.496 319.044 367.254 319.157C367.288 319.159 367.321 319.159 367.354 319.157C371.114 319.043 374.686 317.492 377.337 314.824C377.607 314.549 377.864 314.266 378.108 313.97C380.324 311.284 381.516 307.901 381.473 304.419C380.384 304.402 379.29 304.384 378.2 304.367Z" fill="#F0A17F"/>
<path d="M340.76 283.653C341.299 283.653 341.826 283.813 342.274 284.112C342.722 284.411 343.071 284.837 343.277 285.335C343.483 285.832 343.537 286.38 343.432 286.909C343.327 287.437 343.067 287.923 342.686 288.304C342.305 288.685 341.82 288.944 341.292 289.049C340.763 289.154 340.215 289.1 339.717 288.894C339.22 288.688 338.794 288.339 338.495 287.891C338.195 287.443 338.036 286.916 338.036 286.377C338.035 286.019 338.106 285.665 338.243 285.334C338.379 285.004 338.58 284.703 338.833 284.45C339.086 284.197 339.387 283.997 339.717 283.86C340.048 283.723 340.402 283.653 340.76 283.653Z" fill="#3E5B58"/>
<path d="M418.564 183.859C418.572 183.872 418.577 183.881 418.586 183.881L418.555 183.92L418.538 183.903C418.547 183.889 418.556 183.874 418.564 183.859V183.859Z" fill="#5CFFE6"/>
<path d="M420.795 181.087C420.079 180.752 419.454 180.249 418.973 179.622C418.247 178.672 417.893 177.488 417.98 176.295C418.067 175.103 418.587 173.983 419.443 173.147C420.3 172.312 421.432 171.819 422.627 171.762C423.821 171.704 424.996 172.086 425.928 172.836C426.86 173.585 427.486 174.65 427.686 175.829C427.887 177.008 427.649 178.22 427.017 179.235C426.386 180.251 425.404 181 424.257 181.341C423.111 181.682 421.879 181.592 420.795 181.087V181.087Z" fill="#B9D9EB"/>
<path d="M418.973 179.622L416.72 182.146L416.663 182.211L416.667 182.216C409.787 186.977 403.257 192.227 397.13 197.925C400.219 200.278 403.099 202.891 405.739 205.737C410.312 198.645 414.578 191.367 418.537 183.903C418.547 183.889 418.556 183.874 418.564 183.859C418.572 183.872 418.577 183.881 418.585 183.881L420.796 181.087C420.08 180.751 419.455 180.249 418.973 179.622Z" fill="#F0A17F"/>
<path d="M341.07 242.321C340.574 242.816 339.943 243.154 339.256 243.29C338.569 243.427 337.857 243.357 337.21 243.089C336.563 242.821 336.01 242.367 335.621 241.784C335.232 241.202 335.024 240.517 335.024 239.817C335.024 239.116 335.232 238.432 335.621 237.849C336.01 237.267 336.563 236.813 337.21 236.545C337.857 236.277 338.569 236.207 339.256 236.343C339.943 236.48 340.574 236.817 341.07 237.313C341.733 237.977 342.106 238.878 342.106 239.817C342.106 240.756 341.733 241.657 341.07 242.321Z" fill="#A5C1D1"/>
<path d="M336.061 242.321C336.556 242.817 337.187 243.154 337.874 243.291C338.561 243.427 339.273 243.357 339.92 243.089C340.567 242.821 341.12 242.367 341.509 241.785C341.899 241.202 342.106 240.518 342.106 239.817C342.106 239.117 341.899 238.432 341.509 237.85C341.12 237.267 340.567 236.813 339.92 236.545C339.273 236.277 338.561 236.207 337.874 236.344C337.187 236.48 336.556 236.818 336.061 237.313C335.397 237.977 335.024 238.878 335.024 239.817C335.024 240.756 335.397 241.657 336.061 242.321ZM338.567 232.405C340.033 232.405 341.465 232.839 342.684 233.654C343.903 234.468 344.852 235.625 345.413 236.979C345.974 238.333 346.121 239.823 345.835 241.261C345.549 242.698 344.843 244.019 343.807 245.055C342.77 246.091 341.45 246.797 340.013 247.083C338.575 247.369 337.085 247.222 335.731 246.661C334.377 246.1 333.22 245.151 332.406 243.932C331.591 242.713 331.157 241.281 331.157 239.815C331.157 238.842 331.348 237.878 331.721 236.979C332.093 236.08 332.639 235.263 333.327 234.575C334.015 233.887 334.832 233.341 335.731 232.969C336.63 232.596 337.594 232.405 338.567 232.405Z" fill="#B9D9EB"/>
<path d="M416.993 280.863C415.724 276.119 412.696 272.037 408.524 269.447C404.372 266.898 399.737 265.238 394.911 264.57C388.45 263.999 381.962 263.807 375.479 263.994C374.136 265.918 372.293 267.438 370.147 268.388C369.283 268.885 368.303 269.146 367.305 269.146C366.308 269.146 365.328 268.885 364.464 268.388C362.317 267.438 360.472 265.918 359.128 263.994C352.646 263.807 346.159 263.999 339.7 264.57C334.874 265.237 330.239 266.898 326.087 269.447C321.915 272.038 318.885 276.12 317.613 280.863C317.184 283.006 317.016 285.192 317.112 287.375C317.112 287.528 317.112 287.685 317.117 287.837C317.173 288.988 317.23 290.143 317.282 291.29C317.509 295.967 317.723 300.618 317.875 305.112C321.192 305.034 324.511 304.961 327.831 304.894C327.726 302.652 327.62 300.41 327.513 298.17C327.619 300.411 327.725 302.652 327.831 304.894C336.266 304.715 344.7 304.557 353.134 304.419C354.228 304.402 355.318 304.384 356.413 304.367C360.043 304.31 363.674 304.258 367.306 304.21C370.937 304.253 374.568 304.306 378.199 304.367C379.288 304.384 380.383 304.402 381.472 304.419C389.907 304.554 398.343 304.712 406.78 304.894C410.098 304.964 413.416 305.037 416.736 305.112C416.828 302.484 416.937 299.807 417.059 297.1C417.163 294.673 417.281 292.218 417.399 289.76C417.43 289.119 417.46 288.478 417.49 287.837C417.61 285.501 417.443 283.159 416.993 280.863V280.863ZM327.177 290.096C327.233 288.771 327.493 287.463 327.947 286.218C327.493 287.463 327.233 288.771 327.177 290.096V290.096ZM340.76 289.102C340.221 289.102 339.694 288.942 339.246 288.643C338.798 288.343 338.449 287.918 338.243 287.42C338.036 286.922 337.982 286.374 338.088 285.846C338.193 285.317 338.452 284.832 338.833 284.451C339.214 284.07 339.7 283.81 340.228 283.705C340.757 283.6 341.304 283.654 341.802 283.86C342.3 284.067 342.726 284.416 343.025 284.864C343.324 285.312 343.484 285.839 343.484 286.377C343.484 287.1 343.197 287.793 342.686 288.303C342.175 288.814 341.482 289.101 340.76 289.102V289.102ZM348.348 289.102C347.809 289.102 347.283 288.942 346.835 288.642C346.387 288.343 346.038 287.917 345.831 287.42C345.625 286.922 345.571 286.374 345.677 285.846C345.782 285.317 346.041 284.832 346.422 284.451C346.803 284.07 347.289 283.81 347.817 283.705C348.346 283.6 348.894 283.654 349.391 283.86C349.889 284.067 350.315 284.416 350.614 284.864C350.913 285.312 351.073 285.839 351.073 286.377C351.073 287.1 350.786 287.793 350.275 288.304C349.764 288.814 349.071 289.102 348.348 289.102V289.102ZM346.543 276.551C351.124 276.302 355.73 276.146 360.361 276.085C355.736 276.148 351.13 276.304 346.543 276.551V276.551ZM374.248 276.085C378.872 276.148 383.478 276.304 388.066 276.551C383.484 276.302 378.878 276.146 374.248 276.085V276.085ZM402.076 279.976C402.765 280.51 403.405 281.106 403.986 281.757C403.405 281.106 402.765 280.51 402.076 279.976V279.976ZM407.417 291.447C407.31 293.689 407.204 295.931 407.098 298.17C407.205 295.93 407.311 293.689 407.417 291.447C407.507 290.008 407.352 288.565 406.958 287.178C407.352 288.564 407.507 290.008 407.417 291.447V291.447Z" fill="#FFBE9F"/>
<path d="M397.527 242.322C397.032 242.816 396.401 243.153 395.714 243.29C395.028 243.426 394.316 243.356 393.669 243.088C393.023 242.82 392.47 242.366 392.081 241.784C391.692 241.202 391.485 240.517 391.485 239.817C391.485 239.117 391.692 238.433 392.081 237.851C392.47 237.269 393.023 236.815 393.669 236.547C394.316 236.279 395.028 236.209 395.714 236.345C396.401 236.481 397.032 236.818 397.527 237.313C397.856 237.642 398.117 238.032 398.295 238.462C398.474 238.892 398.565 239.352 398.565 239.817C398.565 240.283 398.474 240.743 398.295 241.173C398.117 241.603 397.856 241.993 397.527 242.322V242.322Z" fill="#A5C1D1"/>
<path d="M392.523 242.321C393.019 242.816 393.649 243.153 394.336 243.289C395.023 243.426 395.734 243.355 396.381 243.087C397.028 242.819 397.58 242.366 397.969 241.784C398.358 241.202 398.565 240.517 398.565 239.817C398.565 239.117 398.358 238.433 397.969 237.851C397.58 237.269 397.028 236.815 396.381 236.547C395.734 236.279 395.023 236.209 394.336 236.345C393.649 236.481 393.019 236.818 392.523 237.313C392.194 237.642 391.933 238.032 391.755 238.462C391.577 238.891 391.485 239.352 391.485 239.817C391.485 240.282 391.577 240.743 391.755 241.173C391.933 241.602 392.194 241.993 392.523 242.321V242.321ZM395.025 232.405C396.491 232.405 397.924 232.839 399.142 233.654C400.361 234.468 401.311 235.625 401.872 236.979C402.432 238.333 402.579 239.823 402.293 241.261C402.007 242.698 401.302 244.019 400.265 245.055C399.229 246.091 397.909 246.797 396.471 247.083C395.034 247.369 393.544 247.222 392.19 246.661C390.836 246.1 389.678 245.151 388.864 243.932C388.05 242.713 387.615 241.281 387.615 239.815C387.615 238.842 387.807 237.878 388.179 236.979C388.551 236.08 389.097 235.263 389.785 234.575C390.474 233.887 391.29 233.341 392.19 232.969C393.089 232.596 394.052 232.405 395.025 232.405V232.405Z" fill="#B9D9EB"/>
<path d="M316.925 182.216C316.903 182.194 316.878 182.177 316.851 182.163C316.856 182.163 316.864 182.159 316.869 182.146L314.619 179.622C314.138 180.249 313.513 180.751 312.797 181.087L315.007 183.881L315.038 183.92L315.056 183.903C319.013 191.361 323.279 198.64 327.854 205.741C330.494 202.895 333.374 200.282 336.462 197.93C330.337 192.227 323.808 186.976 316.925 182.216Z" fill="#F0A17F"/>
<path d="M359.129 263.994C359.081 263.933 359.033 263.867 358.99 263.802C358.85 261.156 358.859 258.772 358.942 256.405C361.557 256.322 364.176 256.249 366.797 256.187C369.756 256.261 372.713 256.344 375.667 256.435C375.754 258.794 375.759 261.169 375.619 263.802C375.576 263.867 375.528 263.933 375.48 263.994C374.137 265.918 372.294 267.438 370.149 268.388C369.284 268.885 368.304 269.146 367.307 269.146C366.309 269.146 365.329 268.885 364.465 268.388C362.318 267.438 360.473 265.918 359.129 263.994Z" fill="#B9D9EB"/>
<path d="M420.355 233.695C419.528 229.566 418.227 225.545 416.48 221.713C413.774 215.849 410.148 210.456 405.74 205.737C403.099 202.891 400.219 200.278 397.131 197.926C395.701 196.831 394.231 195.795 392.72 194.818C390.376 193.289 387.933 191.92 385.405 190.72C381.676 188.926 377.724 187.641 373.653 186.897L373.631 187.024C373.631 199.843 373.239 212.659 372.184 225.548C370.388 225.615 368.589 225.574 366.797 225.426C365.005 225.574 363.206 225.615 361.409 225.548C360.354 212.659 359.962 199.843 359.958 187.024L359.936 186.897C355.867 187.643 351.917 188.928 348.189 190.72C345.661 191.92 343.217 193.289 340.874 194.818C339.366 195.798 337.892 196.831 336.463 197.93C333.375 200.282 330.494 202.896 327.854 205.741C323.444 210.458 319.818 215.85 317.113 221.713C315.366 225.545 314.066 229.566 313.238 233.695C312.102 239.286 311.868 245.022 312.545 250.687C312.795 252.731 313.172 254.757 313.672 256.755C314.027 257.193 314.335 257.572 314.69 258.01L314.72 258.025C314.947 258.138 315.198 258.19 315.45 258.178C317.743 258.062 320.036 257.949 322.331 257.84H411.263C413.559 257.947 415.852 258.06 418.143 258.178C418.395 258.19 418.647 258.138 418.873 258.025L418.903 258.01C419.259 257.572 419.566 257.193 419.922 256.755C420.421 254.757 420.798 252.731 421.049 250.687C421.725 245.022 421.491 239.286 420.355 233.695V233.695ZM338.568 247.226C337.102 247.226 335.67 246.791 334.451 245.977C333.233 245.163 332.283 244.005 331.722 242.651C331.161 241.297 331.014 239.807 331.3 238.37C331.586 236.932 332.292 235.612 333.328 234.576C334.364 233.539 335.685 232.833 337.122 232.547C338.56 232.261 340.05 232.408 341.404 232.969C342.758 233.53 343.915 234.48 344.729 235.698C345.544 236.917 345.978 238.35 345.978 239.815C345.978 240.788 345.787 241.752 345.414 242.651C345.042 243.55 344.496 244.367 343.808 245.055C343.12 245.743 342.303 246.289 341.404 246.662C340.505 247.034 339.541 247.226 338.568 247.226H338.568ZM395.026 248.036C396.01 248.034 396.986 247.855 397.907 247.507C396.986 247.855 396.01 248.035 395.026 248.036V248.036ZM395.026 247.226C393.56 247.226 392.127 246.791 390.909 245.977C389.69 245.163 388.74 244.005 388.179 242.651C387.618 241.297 387.472 239.807 387.758 238.37C388.043 236.932 388.749 235.612 389.786 234.576C390.822 233.539 392.142 232.833 393.58 232.547C395.017 232.261 396.507 232.408 397.861 232.969C399.215 233.53 400.373 234.48 401.187 235.698C402.001 236.917 402.436 238.35 402.436 239.815C402.436 240.788 402.244 241.752 401.872 242.651C401.499 243.55 400.954 244.367 400.265 245.055C399.577 245.743 398.76 246.289 397.861 246.662C396.962 247.034 395.999 247.226 395.026 247.226V247.226Z" fill="#FFBE9F"/>
<path d="M366.796 186.348C369.094 186.31 371.39 186.494 373.653 186.897L373.631 187.024C373.631 199.844 373.239 212.659 372.184 225.548C370.387 225.615 368.588 225.574 366.796 225.426C365.004 225.574 363.205 225.615 361.408 225.548C360.353 212.659 359.961 199.844 359.957 187.024L359.935 186.897C362.199 186.494 364.497 186.31 366.796 186.348V186.348Z" fill="#F0A17F"/>
<path d="M375.456 242.815C375.455 242.609 375.398 242.407 375.292 242.23C375.186 242.052 375.034 241.907 374.852 241.809C374.67 241.711 374.465 241.664 374.259 241.672C374.053 241.681 373.852 241.744 373.679 241.857C371.771 243.061 369.562 243.7 367.306 243.7C365.05 243.7 362.84 243.061 360.932 241.857C360.759 241.744 360.559 241.681 360.353 241.672C360.146 241.664 359.941 241.711 359.76 241.809C359.578 241.907 359.426 242.052 359.32 242.23C359.213 242.407 359.156 242.609 359.155 242.815V242.84C359.154 243.003 359.187 243.164 359.254 243.312C359.321 243.461 359.419 243.593 359.542 243.7C361.708 245.545 364.46 246.558 367.306 246.558C370.151 246.558 372.903 245.545 375.07 243.7C375.192 243.593 375.291 243.461 375.357 243.312C375.424 243.164 375.458 243.003 375.456 242.84V242.815Z" fill="#A5C1D1"/>
<path d="M345.454 320.565H345.45C345.169 319.303 344.537 318.146 343.627 317.228C342.718 316.31 341.567 315.667 340.308 315.375C339.049 315.082 337.732 315.151 336.511 315.573C335.289 315.996 334.212 316.755 333.403 317.764C332.594 318.772 332.087 319.988 331.939 321.272C331.791 322.557 332.009 323.856 332.568 325.022C333.127 326.188 334.004 327.172 335.098 327.861C336.191 328.55 337.457 328.916 338.75 328.916C339.046 328.918 339.342 328.899 339.635 328.86C341.288 328.644 342.807 327.834 343.907 326.581C345.007 325.328 345.614 323.718 345.616 322.051C345.615 321.551 345.561 321.053 345.454 320.565V320.565Z" fill="#B9D9EB"/>
<path d="M395.862 315.186C394.3 315.186 392.784 315.719 391.565 316.697C390.347 317.675 389.498 319.039 389.158 320.565C389.052 321.053 388.997 321.551 388.997 322.051C388.997 323.718 389.604 325.328 390.703 326.581C391.803 327.833 393.321 328.643 394.973 328.86C395.268 328.898 395.565 328.917 395.862 328.916C397.682 328.913 399.427 328.189 400.713 326.902C402 325.615 402.724 323.871 402.728 322.051C402.727 320.23 402.004 318.484 400.716 317.197C399.429 315.91 397.683 315.186 395.862 315.186V315.186Z" fill="#B9D9EB"/>
</svg>
